<mxfile host="app.diagrams.net" modified="2023-08-08T07:10:46.906Z" agent="Mozilla/5.0 (Windows NT 10.0; Win64; x64) AppleWebKit/537.36 (KHTML, like Gecko) Chrome/114.0.0.0 Safari/537.36" etag="Ophcg7Et4hgRm5zwjUcs" version="21.6.6" type="device">
  <diagram name="Page-1" id="58NzPhiqbN2iwDdDFFEF">
    <mxGraphModel dx="538" dy="484" grid="1" gridSize="10" guides="1" tooltips="1" connect="1" arrows="1" fold="1" page="1" pageScale="1" pageWidth="850" pageHeight="1100" math="0" shadow="0">
      <root>
        <mxCell id="0" />
        <mxCell id="1" parent="0" />
        <mxCell id="90GDzdiH2g7Z_KX-MZq1-1" value="" style="sketch=0;aspect=fixed;pointerEvents=1;shadow=0;dashed=0;html=1;strokeColor=none;labelPosition=center;verticalLabelPosition=bottom;verticalAlign=top;align=center;fillColor=#00188D;shape=mxgraph.azure.laptop" vertex="1" parent="1">
          <mxGeometry x="70" y="170" width="133.33" height="80" as="geometry" />
        </mxCell>
        <mxCell id="90GDzdiH2g7Z_KX-MZq1-2" value="" style="outlineConnect=0;dashed=0;verticalLabelPosition=bottom;verticalAlign=top;align=center;html=1;shape=mxgraph.aws3.ec2;fillColor=#F58534;gradientColor=none;" vertex="1" parent="1">
          <mxGeometry x="440" y="172" width="76.5" height="93" as="geometry" />
        </mxCell>
        <mxCell id="90GDzdiH2g7Z_KX-MZq1-3" value="Laptop" style="text;html=1;strokeColor=none;fillColor=none;align=center;verticalAlign=middle;whiteSpace=wrap;rounded=0;" vertex="1" parent="1">
          <mxGeometry x="100" y="270" width="60" height="30" as="geometry" />
        </mxCell>
        <mxCell id="90GDzdiH2g7Z_KX-MZq1-4" value="EC2" style="text;html=1;strokeColor=none;fillColor=none;align=center;verticalAlign=middle;whiteSpace=wrap;rounded=0;" vertex="1" parent="1">
          <mxGeometry x="448.25" y="267" width="60" height="30" as="geometry" />
        </mxCell>
        <mxCell id="90GDzdiH2g7Z_KX-MZq1-5" value="" style="endArrow=classic;html=1;rounded=0;exitX=0.998;exitY=0.65;exitDx=0;exitDy=0;exitPerimeter=0;" edge="1" parent="1" source="90GDzdiH2g7Z_KX-MZq1-1" target="90GDzdiH2g7Z_KX-MZq1-2">
          <mxGeometry width="50" height="50" relative="1" as="geometry">
            <mxPoint x="260" y="280" as="sourcePoint" />
            <mxPoint x="430" y="220" as="targetPoint" />
          </mxGeometry>
        </mxCell>
        <mxCell id="90GDzdiH2g7Z_KX-MZq1-6" value="22" style="text;html=1;strokeColor=none;fillColor=none;align=center;verticalAlign=middle;whiteSpace=wrap;rounded=0;" vertex="1" parent="1">
          <mxGeometry x="290" y="235" width="60" height="30" as="geometry" />
        </mxCell>
        <mxCell id="90GDzdiH2g7Z_KX-MZq1-7" value="SSH" style="text;html=1;strokeColor=none;fillColor=none;align=center;verticalAlign=middle;whiteSpace=wrap;rounded=0;" vertex="1" parent="1">
          <mxGeometry x="249" y="236" width="60" height="30" as="geometry" />
        </mxCell>
        <mxCell id="90GDzdiH2g7Z_KX-MZq1-8" value="" style="rounded=0;whiteSpace=wrap;html=1;" vertex="1" parent="1">
          <mxGeometry x="83.33000000000001" y="830" width="120" height="60" as="geometry" />
        </mxCell>
        <mxCell id="90GDzdiH2g7Z_KX-MZq1-9" value="" style="image;html=1;image=img/lib/clip_art/general/Lock_128x128.png" vertex="1" parent="1">
          <mxGeometry x="120" y="840" width="40" height="40" as="geometry" />
        </mxCell>
        <mxCell id="90GDzdiH2g7Z_KX-MZq1-10" value="" style="sketch=0;aspect=fixed;pointerEvents=1;shadow=0;dashed=0;html=1;strokeColor=none;labelPosition=center;verticalLabelPosition=bottom;verticalAlign=top;align=center;fillColor=#00188D;shape=mxgraph.mscae.enterprise.key_permissions" vertex="1" parent="1">
          <mxGeometry x="410" y="830" width="26" height="50" as="geometry" />
        </mxCell>
      </root>
    </mxGraphModel>
  </diagram>
</mxfile>
